<svg
    width="150"
    height="150"
    fill="none"
    xmlns="http://www.w3.org/2000/svg"
    id="svg-253010104_545"
>
    <path fill="#FF6753" d="M0 0h150v150H0z"></path>
    <path
        d="M45 60.083v43.816h16.822V82.431h12V68.12h-12v-8.036c0-.881.449-1.322 1.01-1.322.56 0 .897.44.897 1.322v5.834h15.7v-5.834C79.43 50.615 73.038 45 62.833 45 52.626 45 45 50.615 45 60.083Z"
        fill="#FFC702"
        class="scale-[0.5] translate-x-1/4 translate-y-1/4"
    ></path>
    <path
        d="M105 89.917V67.57H76.178v14.31h12v8.036c0 .881-.449 1.322-1.01 1.322-.56 0-.897-.44-.897-1.322v-5.834H67.43v5.834c0 9.468 9.533 15.083 19.738 15.083C97.374 105 105 99.385 105 89.917Z"
        fill="#FFC702"
        class="scale-[0.5] translate-x-1/4 translate-y-1/4"
    ></path>
</svg>